<svg
      xmlns:dc="http://purl.org/dc/elements/1.1/"
      xmlns:cc="http://creativecommons.org/ns#"
      xmlns:rdf="http://www.w3.org/1999/02/22-rdf-syntax-ns#"
      xmlns:svg="http://www.w3.org/2000/svg"
      xmlns="http://www.w3.org/2000/svg"
      xmlns:sodipodi="http://sodipodi.sourceforge.net/DTD/sodipodi-0.dtd"
      xmlns:inkscape="http://www.inkscape.org/namespaces/inkscape"
      version="1.1"
      id="svg2"
      xml:space="preserve"
      width="463.85333"
      height="90.559998"
      viewBox="0 0 463.85333 90.559998"
      sodipodi:docname="DXC Logo 2C Horiz_White RGB.eps"
    >
      <g
        id="g10"
        inkscape:groupmode="layer"
        inkscape:label="ink_ext_XXXXXX"
        transform="matrix(1.3333333,0,0,-1.3333333,0,90.56)"
      >
        <g id="g12" transform="scale(0.1)">
          <path
            d="M 1316.63,393.242 V 249.324 h -39.72 v 143.918 h -54.94 v 36.625 h 149.59 v -36.625 h -54.93"
            style="
              fill: #ffffff;
              fill-opacity: 1;
              fill-rule: nonzero;
              stroke: none;
            "
            id="path14"
          />
          <path
            d="m 1424.7,249.324 v 180.543 h 136.18 v -35.336 h -96.7 V 357.91 h 85.1 v -35.332 h -85.1 v -37.922 h 97.99 V 249.324 H 1424.7"
            style="
              fill: #ffffff;
              fill-opacity: 1;
              fill-rule: nonzero;
              stroke: none;
            "
            id="path16"
          />
          <path
            d="m 1706.43,246.23 c -53.13,0 -92.6,41.004 -92.6,92.852 v 0.512 c 0,51.328 38.69,93.375 94.15,93.375 34.05,0 54.42,-11.356 71.19,-27.86 l -25.29,-29.148 c -13.92,12.641 -28.1,20.375 -46.16,20.375 -30.44,0 -52.35,-25.277 -52.35,-56.227 v -0.515 c 0,-30.949 21.39,-56.739 52.35,-56.739 20.63,0 33.27,8.258 47.45,21.149 l 25.28,-25.535 c -18.57,-19.864 -39.2,-32.239 -74.02,-32.239"
            style="
              fill: #ffffff;
              fill-opacity: 1;
              fill-rule: nonzero;
              stroke: none;
            "
            id="path18"
          />
          <path
            d="m 1948.69,249.324 v 72.473 h -73.25 v -72.473 h -39.72 v 180.543 h 39.72 v -71.441 h 73.25 v 71.441 h 39.71 V 249.324 h -39.71"
            style="
              fill: #ffffff;
              fill-opacity: 1;
              fill-rule: nonzero;
              stroke: none;
            "
            id="path20"
          />
          <path
            d="m 2185.61,249.324 -87.43,114.778 V 249.324 h -39.21 v 180.543 h 36.63 l 84.59,-111.156 v 111.156 h 39.21 V 249.324 h -33.79"
            style="
              fill: #ffffff;
              fill-opacity: 1;
              fill-rule: nonzero;
              stroke: none;
            "
            id="path22"
          />
          <path
            d="m 2427.28,339.594 c 0,30.953 -22.69,56.742 -54.68,56.742 -31.98,0 -54.16,-25.277 -54.16,-56.227 v -0.515 c 0,-30.949 22.69,-56.739 54.68,-56.739 31.98,0 54.16,25.274 54.16,56.227 z M 2372.6,246.23 c -55.71,0 -95.69,41.524 -95.69,92.852 v 0.512 c 0,51.328 40.5,93.375 96.21,93.375 55.71,0 95.68,-41.531 95.68,-92.86 v -0.515 c 0,-51.321 -40.48,-93.364 -96.2,-93.364"
            style="
              fill: #ffffff;
              fill-opacity: 1;
              fill-rule: nonzero;
              stroke: none;
            "
            id="path24"
          />
          <path
            d="m 2525.9,249.324 v 180.543 h 39.72 V 285.434 h 90.02 v -36.11 H 2525.9"
            style="
              fill: #ffffff;
              fill-opacity: 1;
              fill-rule: nonzero;
              stroke: none;
            "
            id="path26"
          />
          <path
            d="m 2844.15,339.594 c 0,30.953 -22.71,56.742 -54.68,56.742 -31.98,0 -54.17,-25.277 -54.17,-56.227 v -0.515 c 0,-30.949 22.69,-56.739 54.68,-56.739 31.98,0 54.17,25.274 54.17,56.227 z m -54.68,-93.364 c -55.72,0 -95.7,41.524 -95.7,92.852 v 0.512 c 0,51.328 40.5,93.375 96.21,93.375 55.71,0 95.69,-41.531 95.69,-92.86 v -0.515 c 0,-51.321 -40.5,-93.364 -96.2,-93.364"
            style="
              fill: #ffffff;
              fill-opacity: 1;
              fill-rule: nonzero;
              stroke: none;
            "
            id="path28"
          />
          <path
            d="m 3028.5,246.23 c -56.23,0 -94.92,39.465 -94.92,92.852 v 0.512 c 0,51.328 39.98,93.375 94.66,93.375 32.5,0 52.1,-8.778 70.93,-24.762 l -25.02,-30.187 c -13.93,11.613 -26.31,18.316 -47.2,18.316 -28.89,0 -51.84,-25.531 -51.84,-56.227 v -0.515 c 0,-33.012 22.69,-57.254 54.68,-57.254 14.44,0 27.33,3.605 37.39,10.828 v 25.793 h -39.97 v 34.301 h 78.4 v -78.41 c -18.56,-15.727 -44.1,-28.622 -77.11,-28.622"
            style="
              fill: #ffffff;
              fill-opacity: 1;
              fill-rule: nonzero;
              stroke: none;
            "
            id="path30"
          />
          <path
            d="m 3250.02,321.289 v -71.965 h -39.72 v 71.184 l -69.38,109.359 h 46.43 l 43.08,-72.48 43.84,72.48 h 45.13 l -69.38,-108.578"
            style="
              fill: #ffffff;
              fill-opacity: 1;
              fill-rule: nonzero;
              stroke: none;
            "
            id="path32"
          />
          <path
            d="m 855.641,367.051 c 4.968,18.187 14.726,35.375 28.601,49.519 19.199,19.996 47.578,31.192 77.168,31.192 h 125.15 v 71.976 H 961.41 c -49.578,0 -97.949,-20.789 -130.34,-53.578 -17.199,-16.797 -29.992,-36.793 -39.191,-57.586 -6.328,-13.633 -10.262,-27.418 -12.391,-41.523 z m 0,-54.91 c 4.968,-18.188 14.726,-35.371 28.601,-49.52 19.199,-19.992 47.578,-31.191 77.168,-31.191 h 125.15 V 159.453 H 961.41 c -49.578,0 -97.949,20.793 -130.34,53.582 -17.199,16.793 -29.992,36.789 -39.191,57.582 -6.328,13.637 -10.262,27.418 -12.391,41.524 z M 622.328,279.715 526.773,159.453 h -94.765 l 143.144,180.145 -143.144,180.14 h 94.765 l 95.555,-120.242 95.559,120.242 H 812.66 L 669.516,339.598 812.66,159.453 h -94.773 z m -157.156,87.336 c -2.129,14.105 -6.055,27.89 -12.395,41.523 -9.199,20.793 -21.992,40.789 -39.179,57.586 -32.391,32.789 -80.77,53.578 -130.352,53.578 H 158.102 v -71.976 h 125.144 c 29.594,0 57.981,-11.196 77.168,-31.192 13.879,-14.144 23.633,-31.332 28.613,-49.519 z m 0,-54.91 c -2.129,-14.106 -6.055,-27.887 -12.395,-41.524 -9.199,-20.793 -21.992,-40.789 -39.179,-57.582 -32.391,-32.789 -80.77,-53.582 -130.352,-53.582 H 158.102 v 71.977 h 125.144 c 29.594,0 57.981,11.199 77.168,31.191 13.879,14.149 23.633,31.332 28.613,49.52 h 76.145"
            style="
              fill: #ffffff;
              fill-opacity: 1;
              fill-rule: nonzero;
              stroke: none;
            "
            id="path34"
          />
        </g>
      </g>
    </svg>