<?xml version="1.0" encoding="iso-8859-1"?>
<!-- Generator: Adobe Illustrator 16.0.0, SVG Export Plug-In . SVG Version: 6.00 Build 0)  -->
<!DOCTYPE svg PUBLIC "-//W3C//DTD SVG 1.1//EN" "http://www.w3.org/Graphics/SVG/1.1/DTD/svg11.dtd">
<svg version="1.1" id="Capa_1" xmlns="http://www.w3.org/2000/svg" xmlns:xlink="http://www.w3.org/1999/xlink" x="0px" y="0px"
	 width="578.764px" height="578.764px" viewBox="0 0 578.764 578.764" style="enable-background:new 0 0 578.764 578.764;"
	 xml:space="preserve">
<g>
	<g>
		<path d="M82.816,299.701c0.057,0.66,0.441,1.227,0.971,1.611c0.542,0.477,1.265,0.701,2.073,0.488
			c1.126-0.012,2.023-1.076,2.146-2.242c1.285-1.812,2.819-3.359,4.549-4.619c16.042-5.011,32.208-6.814,48.874-0.34
			c10.486,4.076,20.457,9.639,31.135,13.033c16.242,5.156,32.766,9.619,49.417,13.252c17.719,3.863,35.732,6.385,53.599,9.596
			c1.163,0.207,2.717,1.061,3.166,2.039c8.018,17.496,14.447,35.762,14.887,54.959c0.249,10.818,6.161,19.848,5.863,30.641
			c-0.2,7.273,2.787,14.639,4.39,21.949c0.164,0.746,0.486,1.543,0.959,2.131c6.275,7.783,6.561,17.689,9.568,26.633
			c1.044,3.102,2.293,6.199,3.916,9.029c10.792,18.83,20.812,38.145,35.166,54.709c11.367,13.121,24.161,24.59,38.539,34.271
			c6.21,4.184,12.652,8.025,18.838,11.922c1.942-1.533,4.406-2.533,4.479-4.586c8.793-2.395,10.372-14.145,4.754-19.918
			c3.451-4.684,3.084-12.016-1.069-16.148c7.238-4.395,7.074-16.602-0.474-20.656c0.747-5.594-1.995-11.738-8.237-13.248
			c2.366-6.395-0.453-14.914-8.449-16.211c-0.021-0.064-0.041-0.131-0.062-0.199c5.765-5.357,4.717-16.68-3.134-19.873
			c0.865-5.072-1.179-10.727-6.14-13.023c-0.103-0.422-0.2-0.842-0.298-1.258c1.917-4.691,0.958-10.656-2.864-14.068
			c1.909-4.568,1.081-10.391-2.497-13.863c-0.502-4.279-0.616-8.629,0.191-13.15c1.008-5.633-1.244-11.889-2.215-17.832
			c-3.456-21.107-13.881-39.674-21.657-59.209c-0.51-1.285-0.959-2.6-1.697-4.619c7.523-1.098,14.725-2.225,21.946-3.184
			c16.928-2.248,33.84-4.658,50.809-6.49c5.806-0.629,11.799,0.041,17.67,0.529c4.586,0.385,9.266,1.25,13.142-1.799
			c4.505-3.541,9.69-3.781,14.982-4.406c1.493-0.176,2.979-0.432,4.459-0.727h8.323c1.604,0,2.354-1.309,2.265-2.549
			c0.29-0.025,0.579-0.049,0.869-0.074c3.011-0.248,3.035-4.969,0-4.717c-0.972,0.082-1.938,0.16-2.909,0.242
			c0.135-0.359,0.18-0.756,0.151-1.139l3.414-0.51c1.273-0.193,1.959-1.775,1.648-2.902c-0.285-1.043-1.109-1.566-2.052-1.664
			c-0.371-0.322-0.869-0.535-1.506-0.525c-12.224,0.166-24.187-1.6-35.847-5.271c-0.069-0.021-0.131-0.025-0.2-0.041
			c-9.416-3.117-19.151-4.627-28.613-7.308c-10.963-3.105-21.313-8.438-31.823-13.048c-3.66-1.604-7.042-3.872-10.441-6.018
			c-1.688-1.065-3.121-2.542-4.684-3.811c-0.587-0.474-1.224-1.257-1.844-1.265c-8.029-0.089-13.072-6.597-19.927-9.208
			c-4.525-1.726-8.833-4.011-13.317-5.859c-4.725-1.946-9.547-3.647-14.312-5.492c-6.712-2.599-9.809-8.604-12.922-14.345
			c-6.205-11.436-11.75-23.235-18.16-34.545c-3.316-5.859-7.348-11.542-12.052-16.328c-6.536-6.65-14.271-12.109-21.007-18.584
			c-7.41-7.124-15.153-14.186-21.106-22.456c-5.769-8.017-9.074-17.756-14.149-26.333c-4.692-7.927-10.318-15.296-15.479-22.946
			c-0.449-0.661-0.873-1.346-1.281-2.04c-0.359-2.272-1.306-4.427-2.823-6.128c-1.885-4.32-4.097-8.38-8.511-11.069
			c-0.281-0.171-0.534-0.408-0.767-0.669c-0.049-3.721-1.616-7.409-4.696-9.596c-0.061-0.118-0.123-0.241-0.184-0.363
			c0.795-5.043-1.273-10.62-6.206-12.88c0.445-3.513-0.649-7.197-3.297-9.849l-2.832-2.832c-1.665-1.665-3.741-2.713-5.924-3.158
			c1.554-5.577-0.608-12.333-6.487-14.598C177.448,8.213,173.776,0,164.796,0c-7.095,0-10.877,5.128-11.354,10.604
			c-1.93,3.998-3.75,8.054-5.271,12.207c-7.964,21.738-8.046,43.632-2.579,66.157c2.729,11.249,5.977,21.641,13.668,30.376
			c0.404,0.457,0.743,1.069,0.857,1.66c1.518,7.776,6.72,12.779,12.534,17.581c2.901,2.395,4.888,5.883,7.344,8.829
			c1.861,2.231,3.452,4.92,5.777,6.499c13.501,9.176,22.975,21.751,29.021,36.5c3.774,9.208,2.31,19.494,0.396,29.196
			c-0.449,2.269-3.052,5.121-5.275,5.863c-10.906,3.627-21.926,6.997-33.077,9.768c-16.781,4.174-34.174,6.373-48.548,17.34
			c-5.112,3.9-9.294,8.127-10.094,14.904c-0.143,1.216-1.326,2.423-2.261,3.419c-7.03,7.523-15.304,12.317-25.928,13.003
			c-7.781,0.502-11.505,7.298-8.613,13.203C81.707,298.045,82.188,298.918,82.816,299.701z"/>
	</g>
</g>
<g>
</g>
<g>
</g>
<g>
</g>
<g>
</g>
<g>
</g>
<g>
</g>
<g>
</g>
<g>
</g>
<g>
</g>
<g>
</g>
<g>
</g>
<g>
</g>
<g>
</g>
<g>
</g>
<g>
</g>
</svg>
