<?xml version="1.0" encoding="iso-8859-1"?>
<!-- Generator: Adobe Illustrator 16.0.0, SVG Export Plug-In . SVG Version: 6.00 Build 0)  -->
<!DOCTYPE svg PUBLIC "-//W3C//DTD SVG 1.1//EN" "http://www.w3.org/Graphics/SVG/1.1/DTD/svg11.dtd">
<svg version="1.1" id="Capa_1" xmlns="http://www.w3.org/2000/svg" xmlns:xlink="http://www.w3.org/1999/xlink" x="0px" y="0px"
	 width="32.75px" height="32.75px" viewBox="0 0 32.75 32.75" style="enable-background:new 0 0 32.75 32.75;" xml:space="preserve"
	>
<g>
	<g>
		<path d="M29.375,1.25h-1.124c0.028-0.093,0.058-0.186,0.058-0.289C28.309,0.43,27.878,0,27.348,0
			c-0.531,0-0.961,0.431-0.961,0.961c0,0.103,0.028,0.196,0.059,0.289h-3.68c0.029-0.093,0.058-0.186,0.058-0.289
			C22.823,0.43,22.393,0,21.861,0C21.331,0,20.9,0.431,20.9,0.961c0,0.103,0.029,0.196,0.059,0.289h-3.68
			c0.029-0.093,0.058-0.186,0.058-0.289C17.337,0.43,16.906,0,16.376,0c-0.53,0-0.961,0.431-0.961,0.961
			c0,0.103,0.029,0.196,0.058,0.289h-3.68c0.029-0.093,0.058-0.186,0.058-0.289C11.851,0.43,11.42,0,10.89,0
			c-0.531,0-0.961,0.431-0.961,0.961c0,0.103,0.028,0.196,0.058,0.289h-3.68c0.03-0.093,0.058-0.186,0.058-0.289
			C6.365,0.43,5.935,0,5.404,0C4.873,0,4.443,0.431,4.443,0.961c0,0.103,0.029,0.196,0.058,0.289H3.375
			c-1.517,0-2.75,1.233-2.75,2.75v26c0,1.518,1.233,2.75,2.75,2.75H26.27l5.855-5.855V4C32.125,2.483,30.893,1.25,29.375,1.25z
			 M3.375,31.25c-0.689,0-1.25-0.561-1.25-1.25V9h28.5v17.273l-0.311,0.311h-2.356c-1.101,0-2,0.9-2,2v2.355l-0.31,0.311H3.375z"/>
		<path d="M19.52,12.536l-1.136,1.232l-0.692,0.749l-7.615,8.252l-1.058,3.662l-0.7,2.422l2.356-0.893l3.565-1.352l7.615-8.25
			l0.691-0.75l1.135-1.234c1.062-1.148,0.989-2.941-0.16-4.002C22.371,11.314,20.58,11.387,19.52,12.536z M10.294,27.609
			l-0.897-0.827l1.011-3.496l0.269,0.039l2.919,2.692l0.086,0.311L10.294,27.609z M22.204,17.293l-3.481-3.213l0.822-0.892
			l3.482,3.212L22.204,17.293z"/>
	</g>
</g>
<g>
</g>
<g>
</g>
<g>
</g>
<g>
</g>
<g>
</g>
<g>
</g>
<g>
</g>
<g>
</g>
<g>
</g>
<g>
</g>
<g>
</g>
<g>
</g>
<g>
</g>
<g>
</g>
<g>
</g>
</svg>
