<?xml version="1.0" encoding="iso-8859-1"?>
<!-- Generator: Adobe Illustrator 19.0.0, SVG Export Plug-In . SVG Version: 6.00 Build 0)  -->
<svg version="1.1" id="Capa_1" xmlns="http://www.w3.org/2000/svg" xmlns:xlink="http://www.w3.org/1999/xlink" x="0px" y="0px"
	 viewBox="0 0 512 512" style="enable-background:new 0 0 512 512;" xml:space="preserve">
<path style="fill:#3A484A;" d="M465.74,321.726c0,0-14.308,40.345-68.601,51.404c-54.293,11.06-70.379-78.21-70.379-78.21
	l36.376-38.921l56.244,5.53l46.36,35.19L465.74,321.726L465.74,321.726z"/>
<path style="fill:#506366;" d="M406.983,134.084l-48.051,32.937l-32.174,127.9h36.184c61.509-10.674,95.763,17,111.604,36.279
	c6.503,7.914,19.002,6.274,23.156-3.088C524.551,267.608,523.322,134.084,406.983,134.084z"/>
<path style="fill:#7CB777;" d="M272.467,49.387c14.584,22.689-13.934,44.074-25.551,51.517l-4.612,2.774l0.021,21.13l30.354,31.44
	l63.898,9.08l54.971-3.096c8.456-17.465,15.433-28.152,15.433-28.152C389.86,90.78,352.549,49.387,272.467,49.387z"/>
<path style="fill:#EFEDEE;" d="M391.549,162.235c0,0-50.713-86.707-149.243-58.555l-35.374,43.161l-35.87,168.199l42.767,3.617
	c0.001,0.001,0.001,0.002,0.002,0.004l-15.984,79.147l86.254,18.543l89.907-18.543l23.132-24.677
	C335.647,304.319,368.917,208.997,391.549,162.235z"/>
<path style="fill:#85E7FF;" d="M272.467,49.387c-148.51,0-247.463,149.444-268.346,337.718l34.046,25.124l118.471-141.762
	l85.666-166.788c0,0,0.01,0,0.021-0.01C243.562,102.996,290.324,77.167,272.467,49.387z"/>
<path style="fill:#57D0E6;" d="M43.524,405.821c0.517-6.278,1.119-12.519,1.806-18.715C64.314,215.94,147.831,76.884,274.443,53.022
	c-0.246-0.548-0.522-1.096-0.816-1.646c-0.054-0.1-0.107-0.201-0.162-0.301c-0.308-0.561-0.636-1.124-0.998-1.687
	c-148.51,0-247.463,149.444-268.346,337.718l34.046,25.124L43.524,405.821z"/>
<path style="fill:#FADC60;" d="M393.581,432.766l-138.044-49.381l-37.087-47.131l-4.618-17.598l-0.01,0.002v-0.002h0.01
	c-11.432-22.782-8.848-51.386,9.17-71.938c0.181-0.201,0.352-0.402,0.533-0.603c56.977-64.346,70.379-142.437,18.771-142.437
	C79.257,150.26,106.785,371.924,4.122,387.106C1.398,411.688,0,436.944,0,462.613h353.919h61.317L393.581,432.766z"/>
<path style="fill:#506366;" d="M415.236,462.612c-207.116,0-201.415-143.955-201.415-143.955h0.01
	c4.404,8.798,10.898,16.73,19.404,22.994c31.631,23.306,84.304,45.414,163.903,31.479
	C397.139,373.13,415.236,384.19,415.236,462.612z"/>
<path style="fill:#3A484A;" d="M287.037,220.492c-1.063,0-2.144-0.22-3.176-0.687c-3.888-1.756-5.617-6.334-3.86-10.221
	c3.729-8.257,11.005-14.547,19.962-17.259c8.954-2.711,18.5-1.514,26.183,3.286c3.619,2.261,4.72,7.028,2.459,10.646
	c-2.259,3.62-7.029,4.719-10.646,2.459c-3.902-2.438-8.829-3.023-13.517-1.602c-4.689,1.42-8.465,4.638-10.358,8.831
	C292.793,218.8,289.98,220.492,287.037,220.492z"/>
<path style="fill:#F2C42C;" d="M48.76,361.08c-11.91,13.878-26.167,23.293-44.638,26.024C1.398,411.688,0,436.944,0,462.613h41.207
	c0-25.669,1.398-50.924,4.122-75.507C46.301,378.341,47.452,369.666,48.76,361.08z"/>
<g>
</g>
<g>
</g>
<g>
</g>
<g>
</g>
<g>
</g>
<g>
</g>
<g>
</g>
<g>
</g>
<g>
</g>
<g>
</g>
<g>
</g>
<g>
</g>
<g>
</g>
<g>
</g>
<g>
</g>
</svg>
