<?xml version="1.0" encoding="iso-8859-1"?>
<!-- Generator: Adobe Illustrator 19.0.0, SVG Export Plug-In . SVG Version: 6.00 Build 0)  -->
<svg version="1.1" id="Capa_1" xmlns="http://www.w3.org/2000/svg" xmlns:xlink="http://www.w3.org/1999/xlink" x="0px" y="0px"
	 viewBox="0 0 512.001 512.001" style="enable-background:new 0 0 512.001 512.001;" xml:space="preserve">
<path style="fill:#3A484A;" d="M261.51,145.348c2.644-18.727,3.907-31.361,3.907-31.361s88.146-70.517,192.943,0
	s20.568,249.748,38.197,315.367H308.511L261.51,145.348z"/>
<path style="fill:#EFEDEE;" d="M308.511,429.354H180.21c0,0,8.531-97.94,40.008-138.096
	c21.928-27.962,35.239-102.954,41.292-145.912l6.16-7.189c63.367-33.966,139.761,0,145.637,57.118
	C424.845,307.419,308.511,338.27,308.511,429.354z"/>
<path style="fill:#D2D2D2;" d="M220.219,291.259c-31.478,40.155-40.008,138.096-40.008,138.096h30.905
	c0,0,9.194-105.555,43.119-148.833L220.219,291.259z"/>
<path style="fill:#E0712F;" d="M10.755,293.648c30.67,27.526,84.247-15.12,124.729-9.897
	c80.463,10.831,125.364,19.588,138.422-37.217l-15.344-36.564H128.956l-98.593,51.582L10.755,293.648z"/>
<path style="fill:#3A484A;" d="M96.04,138.159C43.671,168.942,2.38,222.329,0,300.074c0,0,34.632-23.221,93.229-40.136
	l35.726-49.969L96.04,138.159z"/>
<path style="fill:#FA9F6A;" d="M273.91,246.53c-71.878-9.568-133.913-0.089-180.68,13.408
	c-19.392-47.305,13.525-63.024,2.811-121.779c54.993-32.339,122.209-39.725,169.377-24.171
	C268.033,179.93,290.882,163.614,273.91,246.53z"/>
<path style="fill:#3A484A;" d="M351.886,230.08c-3.147,0-6.105-1.937-7.253-5.063c-1.526-4.153-4.925-7.502-9.327-9.189
	c-4.402-1.687-9.17-1.47-13.081,0.599c-3.774,1.994-8.448,0.553-10.442-3.219c-1.994-3.773-0.553-8.447,3.219-10.442
	c7.854-4.152,17.27-4.65,25.836-1.366c8.565,3.284,15.235,9.949,18.299,18.288c1.472,4.005-0.581,8.445-4.587,9.917
	C353.67,229.927,352.771,230.08,351.886,230.08z"/>
<g>
</g>
<g>
</g>
<g>
</g>
<g>
</g>
<g>
</g>
<g>
</g>
<g>
</g>
<g>
</g>
<g>
</g>
<g>
</g>
<g>
</g>
<g>
</g>
<g>
</g>
<g>
</g>
<g>
</g>
</svg>
